<?xml version="1.0" encoding="iso-8859-1"?>
<!-- Generator: Adobe Illustrator 19.0.0, SVG Export Plug-In . SVG Version: 6.00 Build 0)  -->
<svg version="1.1" id="Layer_1" xmlns="http://www.w3.org/2000/svg" xmlns:xlink="http://www.w3.org/1999/xlink" x="0px" y="0px"
	 viewBox="0 0 512 512" style="enable-background:new 0 0 512 512;" xml:space="preserve">
<path style="fill:#F8F8F9;" d="M36.618,339.557l-8.488,8.489c-37.507,37.507-37.507,98.32-0.002,135.824
	c37.508,37.507,98.318,37.507,135.825,0l8.488-8.489L36.618,339.557z"/>
<path style="fill:#EDEDED;" d="M104.531,407.468L28.129,483.87c37.508,37.507,98.316,37.507,135.824-0.001l8.49-8.489
	L104.531,407.468z"/>
<path style="fill:#F8F8F9;" d="M480.874,257.5c-28.294-28.295-45.273-11.32-73.566-39.611
	c-28.296-28.299-11.318-45.274-39.613-73.57c-28.296-28.297-45.275-11.32-73.571-39.617c-28.297-28.297-11.321-45.274-39.618-73.572
	C226.206,2.833,217.717,28.299,189.418,0L79.062,297.114l-8.488,8.488l135.824,135.823l8.488-8.489L512,322.579
	C483.702,294.284,509.169,285.795,480.874,257.5z"/>
<path style="fill:#EDEDED;" d="M480.874,257.5c-28.294-28.295-45.273-11.32-73.566-39.611
	c-28.296-28.299-11.318-45.274-39.613-73.57c-0.004-0.004-0.005-0.004-0.007-0.007L138.485,373.513l67.912,67.911l8.488-8.489
	L512,322.579C483.702,294.284,509.169,285.795,480.874,257.5z"/>
<rect x="25.467" y="354.485" transform="matrix(0.7071 0.7071 -0.7071 0.7071 311.7137 28.4564)" style="fill:#E07188;" width="192.081" height="72.029"/>
<rect x="107.447" y="388.428" transform="matrix(0.7071 0.7071 -0.7071 0.7071 345.6607 14.3845)" style="fill:#E02753;" width="96.04" height="72.028"/>
<g>
</g>
<g>
</g>
<g>
</g>
<g>
</g>
<g>
</g>
<g>
</g>
<g>
</g>
<g>
</g>
<g>
</g>
<g>
</g>
<g>
</g>
<g>
</g>
<g>
</g>
<g>
</g>
<g>
</g>
</svg>
