<svg xmlns="http://www.w3.org/2000/svg" width="64.079" height="64.229" viewBox="0 0 64.079 64.229">
  <g id="badminton" transform="translate(-0.595)">
    <path id="Path_37" data-name="Path 37" d="M30.158,7.974,29.5,12.161l-3.987.456L17.541,7.739a11.429,11.429,0,0,1,2.152-4.052q.346-.42.731-.8A11.42,11.42,0,0,1,25.281,0Z" transform="translate(-14.82)" fill="#eaeaea"/>
    <g id="Group_9" data-name="Group 9" transform="translate(12.23 25.16)">
      <path id="Path_38" data-name="Path 38" d="M109.106,347.086s14.181-7.478,22.943-7.478l2.514,2.514c-8.761,0-22.943,7.478-22.943,7.478Z" transform="translate(-107.129 -322.166)" fill="#00ffba"/>
      <path id="Path_39" data-name="Path 39" d="M95.858,226.023s7.478-14.181,7.478-22.943l-2.514-2.514c0,8.761-7.478,22.943-7.478,22.943Z" transform="translate(-93.344 -200.567)" fill="#00ffba"/>
    </g>
    <path id="Path_40" data-name="Path 40" d="M16.722,387.947l-3.9,3.9-1.406,1.408-2.81,2.81L7.2,397.467,5.65,399.018a1.92,1.92,0,0,1-2.717,0l-1.774-1.774a1.92,1.92,0,0,1,0-2.717l1.552-1.552,1.408-1.406,2.81-2.81,1.406-1.408,3.9-3.9Z" transform="translate(0 -335.353)" fill="#38abf9"/>
    <path id="Path_41" data-name="Path 41" d="M2.85,396.215l11.072-11.072-1.689-1.689L1.162,394.527a1.921,1.921,0,0,0,0,2.717l1.689,1.689A1.921,1.921,0,0,1,2.85,396.215Z" transform="translate(-0.003 -335.352)" fill="#2ba0e2"/>
    <g id="Group_10" data-name="Group 10" transform="translate(2.711 51.998)">
      <path id="Path_42" data-name="Path 42" d="M23.357,452.618l-1.408,1.408-4.491-4.492,1.408-1.406Z" transform="translate(-17.459 -443.909)" fill="#3b4c5b"/>
      <path id="Path_43" data-name="Path 43" d="M56.976,419l-1.406,1.408-4.491-4.491,1.406-1.408Z" transform="translate(-46.861 -414.507)" fill="#3b4c5b"/>
    </g>
    <path id="Path_44" data-name="Path 44" d="M200.379,31.761a.862.862,0,0,0-1.219,0l-.307.307a.85.85,0,0,0-.078-.091L195.8,29l3.057-3.057.105.1a.862.862,0,0,0,1.22-1.219l-.1-.1.253-.253a.862.862,0,1,0-1.219-1.219l-.253.253L195.8,20.45l2.3-2.3a.862.862,0,0,0-1.219-1.219l-2.3,2.3-3.058-3.058,2.3-2.3a.862.862,0,1,0-1.219-1.219l-2.3,2.3L187.246,11.9l.254-.254a.862.862,0,1,0-1.219-1.219l-.254.254-.928-.928a.862.862,0,1,0-1.219,1.219l.928.928-3.057,3.057-2.972-2.972a.848.848,0,0,0-.091-.078l.307-.307a.862.862,0,1,0-1.219-1.219L173.2,14.954l-.4-.4a.862.862,0,0,0-1.219,1.219l.4.4-3.058,3.058-.88-.88a.862.862,0,0,0-1.219,1.219l.88.88-3.058,3.058-.3-.3a.862.862,0,0,0-1.219,1.219l.3.3-3.131,3.131a.862.862,0,0,0-1.071,1.071l-.137.137a.862.862,0,1,0,1.22,1.219l.063-.063,3.057,3.057-3.058,3.058-.928-.928a.862.862,0,1,0-1.219,1.219l.928.928-.332.332a.862.862,0,1,0,1.22,1.219l.332-.332,3.058,3.058-1.9,1.9a.862.862,0,1,0,1.22,1.219l1.9-1.9,3.058,3.058-1.9,1.9a.862.862,0,1,0,1.22,1.219l1.9-1.9,3.058,3.058-.331.331a.862.862,0,1,0,1.22,1.219l.461-.461a.877.877,0,0,0,.106.007.861.861,0,0,0,.855-.968l3.187-3.187,3.057,3.057-.063.063a.862.862,0,1,0,1.22,1.219l.137-.137a.863.863,0,0,0,1.071-1.072l3.131-3.131.3.3a.862.862,0,0,0,1.22-1.219l-.3-.3,3.058-3.058.88.88a.862.862,0,1,0,1.22-1.219l-.88-.88,3.058-3.058.4.4a.862.862,0,0,0,1.22-1.219l-.4-.4,4.578-4.578A.863.863,0,0,0,200.379,31.761Zm-2.74-7.033-3.057,3.057-3.058-3.058,3.057-3.057ZM178.691,29l3.058-3.058L184.808,29l-3.058,3.058Zm1.839,4.278-3.058,3.058-3.058-3.058,3.058-3.058Zm2.439-8.555,3.058-3.058,3.058,3.058-3.058,3.058Zm-1.22-1.219-3.058-3.058,3.058-3.058,3.058,3.058Zm-1.219,1.219-3.058,3.058-3.058-3.058,3.058-3.058ZM176.252,29l-3.058,3.058L170.136,29l3.058-3.058Zm-4.278,4.278-3.057,3.057-3.058-3.058,3.057-3.057Zm1.219,1.22,3.058,3.058-3.057,3.057-3.058-3.058Zm4.278,4.278,3.058,3.058L177.473,44.9l-3.058-3.058Zm1.219-1.22,3.058-3.058,3.058,3.058-3.058,3.058Zm4.278-4.278,3.058-3.058,3.058,3.058-3.058,3.058ZM187.246,29l3.058-3.058L193.363,29,190.3,32.063Zm6.115-8.554L190.3,23.508l-3.058-3.058,3.057-3.057Zm-7.336-7.336,3.058,3.058-3.057,3.057-3.058-3.058Zm-8.547-.007a.847.847,0,0,0,.078.091l2.972,2.972-3.058,3.058-3.057-3.057Zm-4.284,4.284,3.057,3.057-3.058,3.058-3.057-3.057Zm-4.278,4.278,3.057,3.057-3.058,3.058-3.057-3.057ZM161.582,29l3.057-3.057L167.7,29l-3.057,3.057Zm0,8.554L164.64,34.5l3.058,3.058-3.058,3.058Zm4.278,4.278,3.058-3.058,3.058,3.058L168.917,44.9Zm7.336,7.336-3.058-3.058,3.058-3.058,3.058,3.058Zm8.554,0-3.057-3.057,3.057-3.057,3.057,3.057Zm4.277-4.277-3.057-3.057,3.058-3.058,3.057,3.057Zm4.278-4.278-3.057-3.057L190.3,34.5l3.057,3.057Zm1.221-7.335,3.058-3.058,2.972,2.972a.851.851,0,0,0,.091.078l-3.065,3.065Z" transform="translate(-137.626 -8.304)" fill="#ccc"/>
    <path id="Path_45" data-name="Path 45" d="M192.354,6.582c-8.069-8.069-22.269-6.952-31.715,2.5s-10.564,23.646-2.5,31.715,22.269,6.952,31.716-2.494S200.422,14.651,192.354,6.582Zm-4.746,29.465c-8.191,8.19-20.4,9.309-27.213,2.494s-5.7-19.022,2.5-27.212,20.4-9.309,27.212-2.5S195.8,27.856,187.608,36.047Z" transform="translate(-133.07 -1.042)" fill="#00ffba"/>
    <path id="Path_46" data-name="Path 46" d="M88.783,69.451a3.232,3.232,0,0,1-.716,1.075,3.283,3.283,0,0,1-4.644,0L81.1,68.2l4.643-4.643,2.322,2.322A3.28,3.28,0,0,1,88.783,69.451Z" transform="translate(-70.406 -55.587)" fill="#e21e43"/>
    <path id="Path_47" data-name="Path 47" d="M101.27,69.451a3.285,3.285,0,0,1-3.569-.716l-2.322-2.322,2.852-2.852,2.322,2.322A3.28,3.28,0,0,1,101.27,69.451Z" transform="translate(-82.893 -55.588)" fill="#fc3552"/>
    <path id="Path_48" data-name="Path 48" d="M27.306,36.529,25.515,38.32l-7.974-4.878a11.429,11.429,0,0,1,2.152-4.052Z" transform="translate(-14.82 -25.703)" fill="#ccc"/>
  </g>
</svg>
