<svg xmlns="http://www.w3.org/2000/svg" width="27.961" height="27.502" viewBox="0 0 27.961 27.502">
  <g id="cleaning" transform="translate(-8 -15.999)">
    <g id="Filled_outline" data-name="Filled outline" transform="translate(8 15.999)">
      <path id="Path_1" data-name="Path 1" d="M224.709,232l-3.209,9.167-3.209-7.792-2.292.917,2.919,7.662a3.049,3.049,0,0,0,5.659.1l2.881-6.843V232Z" transform="translate(-204.082 -219.624)" fill="#fdc8a2"/>
      <path id="Path_2" data-name="Path 2" d="M402.292,48a2.75,2.75,0,0,1,2.75,2.75v6.876a2.75,2.75,0,0,1-2.75-2.75V50.75a.917.917,0,0,0-.917-.917H400V48Z" transform="translate(-377.54 -46.166)" fill="#804a32"/>
      <path id="Path_3" data-name="Path 3" d="M296,29.041l1.375.917V32.25a.917.917,0,0,0,.917.917h1.833v2.75h4.125V27.361A3.343,3.343,0,0,0,301.039,24a3.308,3.308,0,0,0-3.322,2.588l-.341,1.536Z" transform="translate(-279.499 -23.541)" fill="#fdc8a2"/>
      <circle id="Ellipse_3" data-name="Ellipse 3" cx="1" cy="1" r="1" transform="translate(20 4)" fill="#91563a"/>
      <path id="Path_4" data-name="Path 4" d="M345.49,24.764a13.927,13.927,0,0,0,5.415,4.5V27.31a3.306,3.306,0,0,0-5.415-2.546Z" transform="translate(-326.153 -23.545)" fill="#91563a"/>
      <path id="Path_5" data-name="Path 5" d="M310.884,239.792a2.431,2.431,0,0,1-2.337-1.763l-.068-.239a2.431,2.431,0,0,1,.439-2.186L311.8,232h4.125v4.125l-.458,5.5,1,2.75.834,2.292h-6.417Z" transform="translate(-291.174 -219.624)" fill="#00ffba"/>
      <path id="Path_6" data-name="Path 6" d="M358.417,450.292H352V448h5.583Z" transform="translate(-332.29 -423.248)" fill="#91563a"/>
      <path id="Path_7" data-name="Path 7" d="M411.209,236.125V233.6a1.6,1.6,0,1,0-3.209,0v2.521Z" transform="translate(-385.081 -219.624)" fill="#00ffba"/>
      <path id="Path_8" data-name="Path 8" d="M408,304h3.209v10.543H408Z" transform="translate(-385.081 -287.499)" fill="#fdc8a2"/>
      <path id="Path_9" data-name="Path 9" d="M144,144h2.75a1.833,1.833,0,0,1,1.833,1.833v.917H144Z" transform="translate(-136.208 -136.666)" fill="#fff"/>
      <path id="Path_10" data-name="Path 10" d="M112,152h1.833v1.833H112Z" transform="translate(-106.041 -144.208)" fill="#fff"/>
      <path id="Path_11" data-name="Path 11" d="M147.209,225.375V224h-1.833v1.375L144,228.584v4.584h4.584v-4.584Z" transform="translate(-136.208 -212.082)" fill="#ffb431"/>
      <path id="Path_12" data-name="Path 12" d="M168,192h1.833v1.833H168Z" transform="translate(-158.833 -181.916)" fill="#fff"/>
      <path id="Path_13" data-name="Path 13" d="M144.917,193.833H144V192h1.375Z" transform="translate(-136.208 -181.916)" fill="#fff"/>
      <g id="Group_6" data-name="Group 6" transform="translate(0 4.326)">
        <path id="Path_14" data-name="Path 14" d="M171.209,199.334l3.209-1.375-2.066-5.371A.917.917,0,0,0,171.5,192h-2.579a.917.917,0,0,0,0,1.833h.917v1.833Z" transform="translate(-158.833 -186.242)" fill="#00ffba"/>
        <rect id="Rectangle_16" data-name="Rectangle 16" width="3" height="2" rx="1" transform="translate(6 5.674)" fill="#00ffba"/>
        <rect id="Rectangle_17" data-name="Rectangle 17" width="4" height="4" rx="2" transform="translate(7 7.674)" fill="#00ffba"/>
        <path id="Path_15" data-name="Path 15" d="M72,160h.917v.917H72Z" transform="translate(-68.333 -156.075)" fill="#00ffba"/>
        <path id="Path_16" data-name="Path 16" d="M40,160h.917v.917H40Z" transform="translate(-38.167 -156.075)" fill="#00ffba"/>
        <path id="Path_17" data-name="Path 17" d="M8,160h.917v.917H8Z" transform="translate(-8 -156.075)" fill="#00ffba"/>
        <path id="Path_18" data-name="Path 18" d="M0,0H.917V.917H0Z" transform="translate(3.561 2.526) rotate(-62.103)" fill="#00ffba"/>
        <path id="Path_19" data-name="Path 19" d="M0,0H.917V.917H0Z" transform="translate(1.94 1.668) rotate(-62.103)" fill="#00ffba"/>
        <path id="Path_20" data-name="Path 20" d="M0,0H.917V.917H0Z" transform="translate(0.319 0.81) rotate(-62.103)" fill="#00ffba"/>
        <path id="Path_21" data-name="Path 21" d="M0,0H.917V.917H0Z" transform="translate(3.561 6.242) rotate(-27.897)" fill="#00ffba"/>
        <path id="Path_22" data-name="Path 22" d="M0,0H.917V.917H0Z" transform="translate(1.94 7.101) rotate(-27.897)" fill="#00ffba"/>
        <path id="Path_23" data-name="Path 23" d="M0,0H.917V.917H0Z" transform="translate(0.32 7.959) rotate(-27.897)" fill="#00ffba"/>
      </g>
      <path id="Path_24" data-name="Path 24" d="M322.75,123.667h-1.833a.917.917,0,0,1-.917-.917v-2.292l3.667-.458.917,2.292Z" transform="translate(-302.124 -114.041)" fill="#00ffba"/>
      <path id="Path_25" data-name="Path 25" d="M123.252,17.374h-.418c-.058-.07-.118-.14-.181-.206a3.712,3.712,0,0,0-2.6-1.167,3.769,3.769,0,0,0-3.31,1.785l.78.482a2.838,2.838,0,0,1,.259-.354,13.677,13.677,0,0,0,1.668,1.812.915.915,0,1,0,.483.42q.518.429,1.084.813l-1.107.554-3.42.428-.661-.441.8-.535a.458.458,0,0,0,.193-.282l.341-1.536q.015-.067.033-.133l-.884-.241c-.016.058-.03.117-.043.175l-.3,1.356-1.222.815a.458.458,0,0,0,0,.763l1.171.78v2.046a1.377,1.377,0,0,0,1.375,1.375h1.375v2.131l-2.783,3.478a3.248,3.248,0,0,0,.2,4l-.2.564-1.571-3.815a.458.458,0,0,0,.2-.562l-2.066-5.371a1.384,1.384,0,0,0-1.112-.869v-.47a2.294,2.294,0,0,0-2.292-2.292h-2.75a.458.458,0,0,0-.458.458h-1.375a.458.458,0,0,0-.458.458v1.833a.458.458,0,0,0,.458.458h.351a1.374,1.374,0,0,0,.663,2.243,1.367,1.367,0,0,0-.1.507v1.833a1.376,1.376,0,0,0,.693,1.193l-.2.46a.458.458,0,0,0-.037.181v1.432h.917V32.594l.237-.553h1.6a1.373,1.373,0,0,0,1.086-.534l.747,1.992v3.125H106.75V34.907h-.917v2.177a.458.458,0,0,0,.458.458h4.584a.458.458,0,0,0,.458-.458V34.361l1.574,4.131a3.506,3.506,0,0,0,4.843,1.89v2.661a.458.458,0,0,0,.458.458h6.417a.458.458,0,0,0,.458-.458V38.058h-.917v4.526h-2.292V32.958h2.292v3.953h.917V29.979a2.066,2.066,0,0,0-1.375-1.944V26.952l.023.024a3.186,3.186,0,0,0,2.269.94.458.458,0,0,0,.458-.458V20.582A3.212,3.212,0,0,0,123.252,17.374Zm-4.77-.052a2.852,2.852,0,0,1,1.545-.4,2.9,2.9,0,0,1,2.767,2.9v.92l-.059-.029a1.458,1.458,0,0,0-.623-.134A13.153,13.153,0,0,1,118.482,17.321Zm2.674,6.184-.531-1.327,1.257-.628a.542.542,0,0,1,.581.909Zm-4.321,1.2V22.821l2.914-.364.655,1.637-1.43,1.073h-1.681A.459.459,0,0,1,116.834,24.708Zm-.233,7.557,2.745-3.432h1.962a2.05,2.05,0,0,0-.348,1.146V40.292h-2.292V36.167a.458.458,0,0,0-.458-.458,1.975,1.975,0,0,1-1.3-.488A2.229,2.229,0,0,1,116.6,32.265Zm-7.559-8.474a1.377,1.377,0,0,1,1.375,1.375v.458H106.75V23.791Zm-4.125.458h.917v.917h-.917Zm.917,2.292h.917a.458.458,0,1,1,0,.917h-.917a.458.458,0,1,1,0-.917Zm3.209,4.125a.459.459,0,0,1-.458.458H106.75a.459.459,0,0,1-.458-.458V28.833a.459.459,0,0,1,.458-.458h1.833a.459.459,0,0,1,.458.458Zm.917-2.75a.458.458,0,0,0-.458-.458h-.917a.458.458,0,0,1,0-.917h2.579a.461.461,0,0,1,.428.294l1.907,4.959-2.362,1.012-1.177-3.14ZM117.618,39.4a2.59,2.59,0,0,1-3.853-1.236l-1.8-4.718,1.5-.644,2.023,4.913a.458.458,0,0,0,.424.284h.012a.458.458,0,0,0,.42-.307l.494-1.412a2.892,2.892,0,0,0,.907.307v2.718C117.708,39.34,117.663,39.372,117.618,39.4Zm1.05,3.183V41.209h2.292v1.375Zm5.5-12.605v2.063h-2.292V29.979a1.147,1.147,0,0,1,1.143-1.146h.006a1.147,1.147,0,0,1,1.143,1.146Zm-1.375-2.063h-3.209V25.854l3.209-2.484Zm2.75-.963a2.294,2.294,0,0,1-1.833-2.246V19.819A3.845,3.845,0,0,0,123.4,18.3a2.294,2.294,0,0,1,2.147,2.287Z" transform="translate(-98.5 -15.999)"/>
      <path id="Path_26" data-name="Path 26" d="M72,160h.917v.917H72Z" transform="translate(-68.333 -151.749)"/>
      <path id="Path_27" data-name="Path 27" d="M40,160h.917v.917H40Z" transform="translate(-38.167 -151.749)"/>
      <path id="Path_28" data-name="Path 28" d="M8,160h.917v.917H8Z" transform="translate(-8 -151.749)"/>
      <path id="Path_29" data-name="Path 29" d="M0,0H.917V.917H0Z" transform="translate(3.561 6.852) rotate(-62.103)"/>
      <path id="Path_30" data-name="Path 30" d="M0,0H.917V.917H0Z" transform="translate(1.94 5.994) rotate(-62.103)"/>
      <path id="Path_31" data-name="Path 31" d="M0,0H.917V.917H0Z" transform="translate(0.319 5.136) rotate(-62.103)"/>
      <path id="Path_32" data-name="Path 32" d="M0,0H.917V.917H0Z" transform="translate(3.561 10.568) rotate(-27.897)"/>
      <path id="Path_33" data-name="Path 33" d="M0,0H.917V.917H0Z" transform="translate(1.94 11.427) rotate(-27.897)"/>
      <path id="Path_34" data-name="Path 34" d="M0,0H.917V.917H0Z" transform="translate(0.32 12.285) rotate(-27.897)"/>
    </g>
  </g>
</svg>
