<svg xmlns="http://www.w3.org/2000/svg" width="64.229" height="68.459" viewBox="0 0 64.229 68.459">
  <g id="international" transform="translate(-15.818)">
    <circle id="Ellipse_7" data-name="Ellipse 7" cx="32.114" cy="32.114" r="32.114" transform="translate(15.818 4.23)" fill="#00ffba"/>
    <path id="Path_58" data-name="Path 58" d="M216.21,31.636a32.269,32.269,0,0,0-6.142.589,32.119,32.119,0,0,1,0,63.051,32.116,32.116,0,1,0,6.142-63.64Z" transform="translate(-168.277 -27.406)" fill="#00a276"/>
    <path id="Path_59" data-name="Path 59" d="M160.186,199.751l-3.466,4.9a5.233,5.233,0,0,0,1.248,7.295l.881.624a5.233,5.233,0,0,1,2.206,4.463l-.508,13.805a3.28,3.28,0,0,0,5.149,2.814l9.5-6.6a14.422,14.422,0,0,0,3.542-3.511l6.118-8.643a4.13,4.13,0,0,0-.985-5.757l-15.29-10.824a6.02,6.02,0,0,0-8.391,1.435Z" transform="translate(-121.229 -170.84)" fill="#ffcd40"/>
    <path id="Path_60" data-name="Path 60" d="M100.093,35.256a2.653,2.653,0,0,1-.336-3,31.928,31.928,0,0,0-15.143,5.062l-4.5,4.5a6.218,6.218,0,0,0-1.821,4.4v5.013a1.612,1.612,0,0,0,2.532,1.324l3.7-2.567a7.182,7.182,0,0,1,4.1-1.282h4.759a5.878,5.878,0,0,0,4.157-1.722l4.7-4.7a3.229,3.229,0,0,0,.15-4.406Z" transform="translate(-54.122 -27.941)" fill="#ffcd40"/>
    <path id="Path_61" data-name="Path 61" d="M400.987,92.429l-1.838,6.4a11.077,11.077,0,0,0,.542,7.6l2.007,4.469a5.642,5.642,0,0,0,8.3,2.371l1.49-1A32.049,32.049,0,0,0,400.987,92.429Z" transform="translate(-331.703 -80.07)" fill="#ffcd40"/>
    <path id="Path_62" data-name="Path 62" d="M407.691,76.8c-.2,4.891-3.932,9.168-5.771,10.99a1.431,1.431,0,0,1-2.015,0c-1.89-1.873-5.781-6.343-5.781-11.408a6.788,6.788,0,0,1,6.862-6.787A6.865,6.865,0,0,1,407.691,76.8Z" transform="translate(-327.723 -60.287)" fill="#fc6b55"/>
    <path id="Path_63" data-name="Path 63" d="M425.157,69.9a6.977,6.977,0,0,1,1.718,4.888c-.2,4.764-3.74,8.944-5.623,10.841a25.715,25.715,0,0,0,2.153,2.424,1.431,1.431,0,0,0,2.015,0c1.839-1.822,5.567-6.1,5.771-10.99A6.883,6.883,0,0,0,425.157,69.9Z" transform="translate(-351.224 -60.558)" fill="#fc534e"/>
    <circle id="Ellipse_8" data-name="Ellipse 8" cx="3.321" cy="3.321" r="3.321" transform="translate(69.867 13.027)" fill="#e5ecf1"/>
    <path id="Path_64" data-name="Path 64" d="M430.54,97.893a3.321,3.321,0,0,1-2.956,5.64,3.321,3.321,0,1,0,2.956-5.64Z" transform="translate(-356.709 -84.804)" fill="#d6e4ea"/>
    <path id="Path_65" data-name="Path 65" d="M248.038,157.759c-.2,4.891-3.932,9.168-5.771,10.99a1.431,1.431,0,0,1-2.015,0c-1.89-1.873-5.78-6.343-5.78-11.408a6.788,6.788,0,0,1,6.862-6.787A6.865,6.865,0,0,1,248.038,157.759Z" transform="translate(-189.417 -130.424)" fill="#fc6b55"/>
    <path id="Path_66" data-name="Path 66" d="M265.5,150.868a6.977,6.977,0,0,1,1.718,4.888c-.2,4.764-3.74,8.943-5.623,10.841a25.717,25.717,0,0,0,2.153,2.424,1.431,1.431,0,0,0,2.015,0c1.839-1.822,5.567-6.1,5.771-10.99A6.883,6.883,0,0,0,265.5,150.868Z" transform="translate(-212.918 -130.696)" fill="#fc534e"/>
    <circle id="Ellipse_9" data-name="Ellipse 9" cx="3.321" cy="3.321" r="3.321" transform="translate(48.52 23.852)" fill="#e5ecf1"/>
    <path id="Path_67" data-name="Path 67" d="M270.887,178.855a3.321,3.321,0,0,1-2.956,5.64,3.321,3.321,0,1,0,2.956-5.64Z" transform="translate(-218.403 -154.941)" fill="#d6e4ea"/>
    <path id="Path_68" data-name="Path 68" d="M169.325,276.853c-.2,4.891-3.932,9.168-5.771,10.99a1.431,1.431,0,0,1-2.015,0c-1.89-1.873-5.78-6.343-5.78-11.408a6.788,6.788,0,0,1,6.862-6.787A6.865,6.865,0,0,1,169.325,276.853Z" transform="translate(-121.229 -233.594)" fill="#fc6b55"/>
    <path id="Path_69" data-name="Path 69" d="M186.791,269.961a6.977,6.977,0,0,1,1.718,4.888c-.2,4.764-3.74,8.944-5.623,10.842a25.717,25.717,0,0,0,2.153,2.424,1.431,1.431,0,0,0,2.015,0c1.838-1.822,5.567-6.1,5.771-10.99A6.883,6.883,0,0,0,186.791,269.961Z" transform="translate(-144.73 -233.865)" fill="#fc534e"/>
    <circle id="Ellipse_10" data-name="Ellipse 10" cx="3.321" cy="3.321" r="3.321" transform="translate(37.996 39.776)" fill="#e5ecf1"/>
    <path id="Path_70" data-name="Path 70" d="M192.175,297.949a3.321,3.321,0,0,1-2.956,5.64,3.321,3.321,0,1,0,2.956-5.64Z" transform="translate(-150.216 -258.111)" fill="#d6e4ea"/>
    <path id="Path_71" data-name="Path 71" d="M57.164,7.2c-.2,4.891-3.932,9.168-5.771,10.99a1.431,1.431,0,0,1-2.015,0c-1.89-1.873-5.78-6.343-5.78-11.408A6.788,6.788,0,0,1,50.459,0,6.865,6.865,0,0,1,57.164,7.2Z" transform="translate(-24.065 0)" fill="#fc6b55"/>
    <path id="Path_72" data-name="Path 72" d="M74.63.313A6.977,6.977,0,0,1,76.348,5.2c-.2,4.764-3.74,8.944-5.623,10.841a25.717,25.717,0,0,0,2.153,2.424,1.431,1.431,0,0,0,2.015,0c1.839-1.822,5.567-6.1,5.771-10.99A6.883,6.883,0,0,0,74.63.313Z" transform="translate(-47.565 -0.271)" fill="#fc534e"/>
    <circle id="Ellipse_11" data-name="Ellipse 11" cx="3.321" cy="3.321" r="3.321" transform="translate(22.999 3.722)" fill="#e5ecf1"/>
    <path id="Path_73" data-name="Path 73" d="M80.014,28.3a3.321,3.321,0,0,1-2.956,5.64,3.321,3.321,0,1,0,2.956-5.64Z" transform="translate(-53.052 -24.516)" fill="#d6e4ea"/>
  </g>
</svg>
