<svg xmlns="http://www.w3.org/2000/svg" width="510.809" height="510.809" viewBox="0 0 510.809 510.809">
  <g id="badminton_1_" data-name="badminton (1)" transform="translate(-0.595 -1.192)">
    <g id="Group_13" data-name="Group 13">
      <path id="Path_75" data-name="Path 75" d="M109.106,399.216s113.047-59.608,182.887-59.608l20.04,20.04c-69.84,0-182.887,59.608-182.887,59.608Z" fill="#eaeaea"/>
      <path id="Path_76" data-name="Path 76" d="M113.384,403.494s59.608-113.047,59.608-182.887l-20.04-20.04c0,69.84-59.608,182.887-59.608,182.887Z" fill="#eaeaea"/>
    </g>
    <path id="Path_77" data-name="Path 77" d="M129.15,419.255,98.089,450.306l-11.21,11.221-22.4,22.4L53.258,495.148,40.884,507.511a15.306,15.306,0,0,1-21.659,0l-14.14-14.14a15.306,15.306,0,0,1,0-21.659l12.374-12.374,11.221-11.21,22.4-22.4,11.21-11.221,31.051-31.051Z" fill="#fc3552"/>
    <path id="Path_78" data-name="Path 78" d="M18.545,485.173,106.8,396.915l-13.46-13.46L5.085,471.713a15.314,15.314,0,0,0,0,21.658l13.46,13.46A15.316,15.316,0,0,1,18.545,485.173Z" fill="#d2183b"/>
    <g id="Group_14" data-name="Group 14">
      <path id="Path_79" data-name="Path 79" d="M64.479,483.927l-11.221,11.22-35.8-35.809L28.68,448.127Z" fill="#3b4c5b"/>
      <path id="Path_80" data-name="Path 80" d="M98.089,450.306,86.878,461.527l-35.8-35.8,11.21-11.221Z" fill="#3b4c5b"/>
    </g>
    <path id="Path_81" data-name="Path 81" d="M496.091,186.993a6.874,6.874,0,0,0-9.721,0l-2.448,2.448a6.762,6.762,0,0,0-.624-.729l-23.7-23.695,24.371-24.371.837.837a6.874,6.874,0,0,0,9.722-9.721l-.837-.837,2.018-2.018a6.874,6.874,0,0,0-9.721-9.721l-2.018,2.018L459.6,96.826,477.95,78.473a6.874,6.874,0,0,0-9.721-9.721L449.876,87.1,425.5,62.728,443.86,44.367a6.874,6.874,0,0,0-9.721-9.721L415.777,53.007,391.4,28.629l2.025-2.025a6.874,6.874,0,0,0-9.721-9.721l-2.025,2.025-7.4-7.4a6.874,6.874,0,1,0-9.721,9.721l7.4,7.4L347.586,53,323.892,29.306a6.761,6.761,0,0,0-.729-.624l2.448-2.448a6.874,6.874,0,0,0-9.721-9.721l-36.5,36.495-3.183-3.183a6.874,6.874,0,1,0-9.721,9.721l3.183,3.183L245.295,87.107l-7.017-7.017a6.874,6.874,0,0,0-9.721,9.721l7.017,7.017L211.2,121.206l-2.394-2.394a6.874,6.874,0,0,0-9.721,9.721l2.394,2.394-24.962,24.961a6.875,6.875,0,0,0-8.541,8.541l-1.09,1.09a6.874,6.874,0,1,0,9.722,9.721l.5-.5,24.372,24.37L177.1,223.489l-7.4-7.4a6.874,6.874,0,0,0-9.721,9.721l7.4,7.4-2.649,2.649a6.874,6.874,0,1,0,9.722,9.721l2.649-2.649,24.378,24.378-15.154,15.154a6.874,6.874,0,1,0,9.722,9.721L211.2,277.03l24.378,24.379-15.147,15.147a6.874,6.874,0,1,0,9.722,9.721L245.3,311.13l24.378,24.378-2.642,2.642a6.874,6.874,0,1,0,9.722,9.721l3.673-3.673a6.993,6.993,0,0,0,.842.058,6.866,6.866,0,0,0,6.816-7.718L313.5,311.129,337.867,335.5l-.5.5a6.874,6.874,0,1,0,9.722,9.721l1.09-1.09a6.876,6.876,0,0,0,8.54-8.542l24.961-24.961,2.394,2.394A6.874,6.874,0,0,0,393.8,303.8l-2.394-2.394,24.378-24.378,7.017,7.017a6.874,6.874,0,0,0,9.722-9.721l-7.017-7.017,24.378-24.378,3.183,3.183a6.874,6.874,0,0,0,9.722-9.721l-3.183-3.183,36.5-36.5A6.877,6.877,0,0,0,496.091,186.993Zm-21.839-56.067L449.881,155.3,425.5,130.919l24.371-24.371ZM323.2,165.018l24.378-24.378,24.378,24.378L347.583,189.4Zm14.656,34.1L313.483,223.5l-24.378-24.378,24.378-24.378Zm19.443-68.2,24.378-24.378,24.378,24.378L381.682,155.3Zm-9.722-9.721L323.2,96.82l24.378-24.378L371.96,96.82Zm-9.721,9.721L313.483,155.3l-24.378-24.378,24.378-24.378Zm-34.1,34.1L279.384,189.4l-24.378-24.378,24.378-24.378Zm-34.1,34.1-24.371,24.371-24.378-24.378,24.371-24.371Zm9.721,9.722,24.378,24.378L279.39,257.589l-24.378-24.378Zm34.1,34.1,24.378,24.378L313.49,291.689l-24.378-24.378Zm9.721-9.722,24.378-24.378,24.378,24.378L347.582,257.6Zm34.1-34.1,24.378-24.377,24.378,24.378L381.683,223.5Zm34.1-34.1,24.378-24.378,24.378,24.378L415.781,189.4Zm48.749-68.191L415.781,121.2,391.4,96.82l24.371-24.371ZM381.675,38.349l24.378,24.378L381.682,87.1,357.3,62.72ZM313.543,38.3a6.763,6.763,0,0,0,.624.729L337.861,62.72,313.483,87.1,289.112,62.727ZM279.391,72.448l24.371,24.371L279.384,121.2,255.013,96.826Zm-34.1,34.1,24.371,24.371L245.284,155.3l-24.371-24.371Zm-58.47,58.47,24.371-24.371,24.371,24.371-24.371,24.371Zm-.008,68.192,24.378-24.378,24.378,24.378-24.378,24.378Zm34.1,34.1,24.378-24.378,24.378,24.378-24.378,24.378Zm58.478,58.478-24.378-24.377,24.378-24.378,24.378,24.378Zm68.191-.008-24.371-24.371,24.371-24.371,24.371,24.371Zm34.093-34.092L357.3,267.317l24.378-24.378,24.371,24.371Zm34.1-34.1L391.4,233.218l24.378-24.378,24.371,24.371Zm9.73-58.471,24.378-24.378,23.7,23.7a6.778,6.778,0,0,0,.729.624l-24.43,24.43Z" fill="#f3f3f3"/>
    <path id="Path_82" data-name="Path 82" d="M468.432,44.163C404.11-20.159,290.917-11.254,215.617,64.057S131.4,252.55,195.724,316.872s177.515,55.417,252.825-19.883S532.754,108.486,468.432,44.163ZM430.6,279.042c-65.295,65.284-162.6,74.21-216.931,19.883S168.269,147.289,233.564,82s162.6-74.21,216.92-19.893S495.887,213.747,430.6,279.042Z" fill="#fff"/>
  </g>
</svg>
