<svg id="target_2_" data-name="target (2)" xmlns="http://www.w3.org/2000/svg" width="64.229" height="64.229" viewBox="0 0 64.229 64.229">
  <g id="Group_12" data-name="Group 12">
    <path id="Path_49" data-name="Path 49" d="M59.641,15.57a35.358,35.358,0,0,1,4.588,16.545A32.114,32.114,0,1,1,32.114,0,32.967,32.967,0,0,1,49.171,4.894s7.581,5.2,10.47,10.675Z" fill="#00ffba"/>
    <path id="Path_50" data-name="Path 50" d="M288.114,32.114a35.359,35.359,0,0,0-4.588-16.545c-2.889-5.475-10.47-10.675-10.47-10.675A32.967,32.967,0,0,0,256,0V64.229A32.114,32.114,0,0,0,288.114,32.114Z" transform="translate(-223.886 0)" fill="#00a276"/>
    <path id="Path_51" data-name="Path 51" d="M129.549,101.646A20.817,20.817,0,1,1,110.9,90.088,19.511,19.511,0,0,1,120.63,92.5s6.323,3.612,8.919,9.15Z" transform="translate(-78.787 -78.787)" fill="#fff4f4"/>
    <path id="Path_52" data-name="Path 52" d="M276.813,110.9a20.973,20.973,0,0,0-2.165-9.255c-2.6-5.538-8.919-9.15-8.919-9.15A19.512,19.512,0,0,0,256,90.088v41.626A20.813,20.813,0,0,0,276.813,110.9Z" transform="translate(-223.886 -78.787)" fill="#eee1dc"/>
    <circle id="Ellipse_6" data-name="Ellipse 6" cx="9.797" cy="9.797" r="9.797" transform="translate(22.317 22.317)" fill="#ffcd40"/>
    <path id="Path_53" data-name="Path 53" d="M265.8,187.7a9.8,9.8,0,0,0-9.8-9.8V197.5A9.8,9.8,0,0,0,265.8,187.7Z" transform="translate(-223.886 -155.585)" fill="#c59a23"/>
    <g id="Group_11" data-name="Group 11" transform="translate(29.739 6.491)">
      <path id="Path_54" data-name="Path 54" d="M239.042,79.971a1.98,1.98,0,0,1-1.4-3.384l24.432-24.271a1.98,1.98,0,0,1,2.791,2.809L240.437,79.4a1.974,1.974,0,0,1-1.4.575Z" transform="translate(-237.062 -51.74)" fill="#00337a"/>
    </g>
    <path id="Path_55" data-name="Path 55" d="M357.685,6.482l-1.8-5.208A1.235,1.235,0,0,0,353.841.8L343.6,11.042a1.235,1.235,0,0,0-.333,1.135l1.5,6.918a1.234,1.234,0,0,0,.887.93l7.108,1.908a1.235,1.235,0,0,0,1.193-.319l10.089-10.089a1.235,1.235,0,0,0-.381-2.005l-5.311-2.31a1.234,1.234,0,0,1-.674-.728Z" transform="translate(-300.184 -0.387)" fill="#e00"/>
    <path id="Path_56" data-name="Path 56" d="M269.214,56.1c-.015-.015-.031-.028-.047-.043L242.02,83.205a1.976,1.976,0,0,0,2.753-.033L269.2,58.9a1.98,1.98,0,0,0,.009-2.8Z" transform="translate(-211.659 -49.026)" fill="#002659"/>
    <path id="Path_57" data-name="Path 57" d="M377.779,55.516l-5.311-2.31a1.232,1.232,0,0,1-.284-.174l-12.8,12.8a1.228,1.228,0,0,0,.39.186l7.108,1.908a1.235,1.235,0,0,0,1.193-.319L378.16,57.521A1.235,1.235,0,0,0,377.779,55.516Z" transform="translate(-314.297 -46.379)" fill="red"/>
  </g>
</svg>
